<?xml version="1.0" encoding="utf-8"?>
<!-- Generator: Adobe Illustrator 25.4.1, SVG Export Plug-In . SVG Version: 6.00 Build 0)  -->
<svg version="1.1"
	 id="Layer_1" inkscape:version="1.1.2 (b8e25be833, 2022-02-05)" sodipodi:docname="Lokoji Logo.svg" xmlns:inkscape="http://www.inkscape.org/namespaces/inkscape" xmlns:sodipodi="http://sodipodi.sourceforge.net/DTD/sodipodi-0.dtd" xmlns:svg="http://www.w3.org/2000/svg"
	 xmlns="http://www.w3.org/2000/svg" xmlns:xlink="http://www.w3.org/1999/xlink" x="0px" y="0px" viewBox="0 0 2103.4 331.5"
	 style="enable-background:new 0 0 2103.4 331.5;" xml:space="preserve">
<style type="text/css">
	.st0{fill:#FFFFFF;}
</style>
<sodipodi:namedview  bordercolor="#999999" borderopacity="1" id="namedview12" inkscape:current-layer="Layer_1" inkscape:cx="801.5659" inkscape:cy="587.436" inkscape:guide-bbox="true" inkscape:pagecheckerboard="0" inkscape:pageopacity="0" inkscape:pageshadow="0" inkscape:window-height="961" inkscape:window-maximized="1" inkscape:window-width="1280" inkscape:window-x="-8" inkscape:window-y="-8" inkscape:zoom="0.26385853" pagecolor="#ffffff" showgrid="false" showguides="true">
	</sodipodi:namedview>
<g id="XMLID_193_" inkscape:export-filename="G:\Designs &amp; Edit\Final Result\Logo Design\2022\Jan\Lokoji Logo.png" inkscape:export-xdpi="95.900002" inkscape:export-ydpi="95.900002">
	<path id="XMLID_404_" sodipodi:nodetypes="ccccccc" class="st0" d="M735.2,323.3H0V7.4h95.2v220.7h640V323.3z"/>
	<path id="XMLID_401_" class="st0" d="M807.5,48.5C839.8,16.2,878.9,0,924.8,0c45.6,0,84.5,16.2,116.9,48.5
		c32.3,32.3,48.5,71.3,48.5,116.9c0,45.9-16.2,85-48.5,117.5c-32.3,32.5-71.3,48.7-116.9,48.7c-45.9,0-85-16.2-117.3-48.7
		S759,211.3,759,165.4C759,119.7,775.2,80.8,807.5,48.5z M876.8,213.4c13.3,13.6,29.3,20.3,48,20.3c18.5,0,34.3-6.7,47.6-20.1
		c13.3-13.4,19.9-29.5,19.9-48.3c0-18.5-6.6-34.3-19.9-47.6c-13.3-13.3-29.1-19.9-47.6-19.9s-34.4,6.6-47.8,19.9
		c-13.4,13.3-20.1,29.1-20.1,47.6C856.9,184.1,863.5,200.1,876.8,213.4z"/>
	<path id="XMLID_399_" class="st0" d="M1124.8,7.4h95.2v95.2l54.5-95.2h104.7L1291,142l93.5,181.3H1275l-42.4-92.2l-12.6,18.6v73.6
		h-95.2V7.4z"/>
	<path id="XMLID_396_" class="st0" d="M1445.9,48.5C1478.2,16.2,1517.3,0,1563.2,0c45.6,0,84.5,16.2,116.9,48.5
		c32.3,32.3,48.5,71.3,48.5,116.9c0,45.9-16.2,85-48.5,117.5s-71.3,48.7-116.9,48.7c-45.9,0-85-16.2-117.3-48.7
		s-48.5-71.6-48.5-117.5C1397.4,119.7,1413.6,80.8,1445.9,48.5z M1515.2,213.4c13.3,13.6,29.3,20.3,48,20.3
		c18.5,0,34.3-6.7,47.6-20.1c13.3-13.4,19.9-29.5,19.9-48.3c0-18.5-6.6-34.3-19.9-47.6s-29.1-19.9-47.6-19.9s-34.4,6.6-47.8,19.9
		s-20.1,29.1-20.1,47.6C1495.3,184.1,1501.9,200.1,1515.2,213.4z"/>
	<path id="XMLID_394_" class="st0" d="M1812.9,216c8.4,12.7,19,19,32,19c19.3,0,29-13.1,29-39.4V7.4h95.2v188.3
		c0,41.6-11.4,74-34.2,97.4c-22.8,23.4-52.7,35.1-89.6,35.1c-21.9,0-42-5-60.2-14.9c-18.2-10-32.8-24-43.7-42.2L1812.9,216z"/>
	<path id="XMLID_392_" class="st0" d="M2103.4,323.3h-95.2V7.4h95.2V323.3z"/>
</g>
</svg>
