<svg xmlns="http://www.w3.org/2000/svg" viewBox="0 0 1711.13 667.16"><defs><style>.cls-1{fill:#ffc200;}.cls-2{fill:#fff;}</style></defs><g id="Layer_2" data-name="Layer 2"><g id="Layer_20" data-name="Layer 20"><rect class="cls-1" x="967.33" y="173.54" width="79.19" height="27.87" rx="13.94"/><path class="cls-1" d="M59.22,503.55H24.71a13.37,13.37,0,1,1,0-26.74H59.22a13.37,13.37,0,1,1,0,26.74ZM24.71,484.81a5.37,5.37,0,1,0,0,10.74H59.22a5.37,5.37,0,1,0,0-10.74Z"/><path class="cls-2" d="M734.49,224.35q-12.48,0-20.28,3.79T701.1,240.9q-6.54,10.65-6.55,72.07,0,32,.94,47.95c0,4.49-.06,8-.16,10.51s-.52,4-1.25,4.35a11.53,11.53,0,0,1-4.52.56H83.63q-13.62,0-19.51.42a29.21,29.21,0,0,0-12,3.65q-5.93,3.22-5.93,11.07a14.28,14.28,0,0,0,2.81,9,14.54,14.54,0,0,0,8.11,5.05q-.32,13.73-3.58,19.77t-9.21,6q-6.24,0-9.05-6.17T32.45,402.7l-.31-35.05q-.63-32.53-.62-47.95,0-4.21-4.22-6.87a17.37,17.37,0,0,0-9.51-2.67q-6.87,0-11.24,3.65Q2.81,316.9,1.4,324T0,344.65q0,10.67.31,17.11l.31,27.76v15.42q0,18.22,2.66,30.15a33.46,33.46,0,0,0,12.17,19.49Q25,462.16,44,462.15q22.16,0,33.07-13.18t12.49-42.9H692.68v0q14.84-.27,21.53-4.46,9,5,22.16,5.05,12.78,0,19.65-3.09t12.49-10.93q5-7,7-22.44t2-46q0-22.43-.94-56.08Q775.69,224.35,734.49,224.35ZM745.1,331.47q0,22.72-.46,32t-1.72,11.64a4.51,4.51,0,0,1-4.37,2.38c-2.92,0-5.1-.6-6.55-1.82s-2.5-3.93-3.12-8.13a144.94,144.94,0,0,1-.94-19.49q0-14,.31-23.28.63-17.39.63-40.94,0-11.21.47-19.07t1.87-10.37a5.06,5.06,0,0,1,4.83-2.53,6.53,6.53,0,0,1,5.93,2.95q1.88,2.94,2.5,10.51t.62,24.4Z"/><path class="cls-2" d="M1044.65,241q-1.87-10.23-6.55-11.64Q1027.48,226,1011,226q-27.47,0-41.81,12.06-7.82,6.47-9.68,25.24-1.25,10.67-1.25,33.37a348.53,348.53,0,0,0,2,39.68q2,17.53,7,22,7.8,7.31,26.22,7.3a104.13,104.13,0,0,0,18.41-1.69v4.91q0,3.22-.32,7.43H878V347.46l.31-78a54,54,0,0,1,.31-6.45l.31-10.37q0-21.31-8.11-23.28A116.48,116.48,0,0,0,842.46,226q-25.9,0-40.26,11.78-8.12,6.74-10,25.24Q791,273.72,791,306.8q0,32.81,2,58.46t7,30.43q6.56,6.74,45.56,9.25v10.38c0,5.05-.11,40.85-.32,43.75s-.31,5.09-.31,6.59l-8.73.28q-9.06,0-12.8-1.12a29.1,29.1,0,0,0-7.8-1.12,14.89,14.89,0,0,0-11.55,4.77,12.08,12.08,0,0,0-2.49,7.85,18.79,18.79,0,0,0,3.12,10.23,12.78,12.78,0,0,0,7.8,6q7.8,2,21.84,2,7.18,0,17.48-.84,13.73-1.68,19.66-7.15t5.92-16.68c0-3.56.11-6.73.32-9.54l.31-54.54,3.12,0v.24h150.71q8.73,0,11.07-16.13t2.34-45.57q0-15.42.63-41.78.61-23,.62-32.25Q1046.52,251.28,1044.65,241ZM825.92,372.42q-.63-1.12-1.25-28.47t-.62-54.26q0-32.81.93-32.25,1.56-2.52,11.86-2.52,2.8,0,8.42.56l.32,120Q826.85,373.82,825.92,372.42Zm186-30.29q-8.75,0-12-1.12a19.85,19.85,0,0,1-7-4.77q-.93-.84-1.4-17.25T991,285.2q0-28,1.25-27.76,2.81-3.65,10.29-3.64a28.45,28.45,0,0,1,9.68,1.68Z"/><path class="cls-2" d="M1558.54,371.42c35.91-12.12,38.32-37.77,39.61-51.55,2.29-24.42,4.82-67.2,6.86-101.57,1.22-20.72,2.19-37.09,2.77-43.57,1.07-12-14.07-21.83-25.88-27.23-2.4,38.25-7.52,89.86-8.35,119.55-1.62,58.28-8.07,61.07-25.81,70.06-11.61,5.88-47.94,20.28-47.94,20.28.74,8.14,1.3,21.47,1.72,34.51C1513.21,387.61,1545.22,375.91,1558.54,371.42Z"/><path class="cls-2" d="M1580.93,99.26c2.65,2.65,2.62,18.67,1.43,40.41,12.22,5.17,34.41,17.19,32.76,35.72-.56,6.36-1.53,22.68-2.75,43.34-2,34.43-4.58,77.28-6.88,101.82-1.24,13.23-4.14,44.21-44.59,57.85-14.26,4.81-50.18,18-59.15,21.27.45,16.39.66,30.48.66,30.48s51.23-16.38,95.11-32.19c38-13.68,38.26-41.64,40.56-60.85,5.84-48.65,14.76-195.44,14.76-195.44C1654.68,125.07,1580.93,99.26,1580.93,99.26Z"/><path class="cls-2" d="M1297.46,371.42c-35.9-12.12-38.31-37.77-39.6-51.55-2.29-24.42-4.83-67.2-6.86-101.57-1.23-20.72-2.19-37.09-2.77-43.57-1.07-12,14.07-21.83,25.88-27.23,2.4,38.25,7.52,89.86,8.35,119.55,1.62,58.28,8.06,61.07,25.81,70.06,11.61,5.88,47.94,20.28,47.94,20.28-.74,8.14-1.31,21.47-1.72,34.51C1342.79,387.61,1310.79,375.91,1297.46,371.42Z"/><path class="cls-2" d="M1275.08,99.26c-2.65,2.65-2.62,18.67-1.43,40.41-12.22,5.17-34.41,17.19-32.77,35.72.57,6.36,1.53,22.68,2.76,43.34,2,34.43,4.57,77.28,6.87,101.82,1.24,13.23,4.15,44.21,44.6,57.85,14.26,4.81,50.18,18,59.15,21.27-.46,16.39-.66,30.48-.66,30.48s-51.23-16.38-95.11-32.19c-38-13.68-38.26-41.64-40.57-60.85-5.84-48.65-14.75-195.44-14.75-195.44C1201.33,125.07,1275.08,99.26,1275.08,99.26Z"/><path class="cls-2" d="M1459.58,372.88c0-1.1-.07-2.17-.11-3.25L1431.88,378v112.2C1463.15,477.87,1461,415,1459.58,372.88Z"/><path class="cls-2" d="M1491.75,359.85l-24.06,7.29q.09,2.67.18,5.46c1.57,45.77,3.89,114.54-36,126.33V539.7s26.51-4.35,48.21-28.81C1500.26,488.15,1495.19,392.12,1491.75,359.85Z"/><path class="cls-2" d="M1396.16,372.88c0-1.1.07-2.17.11-3.25l27.59,8.35v112.2C1392.59,477.87,1394.72,415,1396.16,372.88Z"/><path class="cls-2" d="M1364,359.85l24.06,7.29q-.09,2.67-.18,5.46c-1.57,45.77-3.89,114.54,36,126.33V539.7s-26.51-4.35-48.21-28.81C1355.48,488.15,1360.55,392.12,1364,359.85Z"/><polygon class="cls-2" points="1467.15 266.72 1465.61 250.69 1469.97 250.28 1471.74 268.72 1471.78 268.77 1437.84 293.44 1435.26 289.9 1467.15 266.72"/><polygon class="cls-2" points="1388.62 266.72 1390.17 250.69 1385.81 250.28 1384.03 268.72 1384 268.77 1417.94 293.44 1420.51 289.9 1388.62 266.72"/><circle class="cls-2" cx="1427.89" cy="625.67" r="41.49"/><path class="cls-2" d="M1524.12,527.17l-33.3-57.76-4.79,2.76,33.3,57.75-44.91,43.85a69,69,0,0,1,23,43.14H1503a74.47,74.47,0,0,0-20.64-43.24l40.88-39.79A5.53,5.53,0,0,0,1524.12,527.17Z"/><path class="cls-2" d="M1337,529.92l33.3-57.75-4.8-2.76-33.29,57.76a5.52,5.52,0,0,0,.93,6.71l41.56,40.46a74.37,74.37,0,0,0-20,42.57h5.57a69.1,69.1,0,0,1,22.2-42.46Z"/><path class="cls-2" d="M1481.18,325.52l-53.29,22.88-52.09-24a35.37,35.37,0,0,0-11.75,27.43l63.84,18.9,63.84-18.9C1492.19,334.11,1481.18,325.52,1481.18,325.52Z"/><path class="cls-2" d="M1472.14,320.52l-44.25,20.28-44.25-20.28s9.22-9.22,42.41-9.22S1472.14,320.52,1472.14,320.52Z"/><path class="cls-2" d="M1409.45,287.33h36.88l11.06,20.28s-9.22-3.69-29.5-3.69-29.5,3.69-29.5,3.69Z"/><path class="cls-2" d="M1338.89,281.27l14.07-42,1.74-5a107.38,107.38,0,0,1-25.91-39.2h-5.9a112.72,112.72,0,0,0,26.19,41.36l-15.29,45.6.07,0,42.38,49.57,3.33-2.84Z"/><path class="cls-2" d="M1534.73,195.14h-5.9a107.29,107.29,0,0,1-25.45,38.74l.11.36-.22.07,15.74,47-40.67,47.58,3.32,2.84,42.39-49.57.06,0-15.36-45.82A112.56,112.56,0,0,0,1534.73,195.14Z"/><circle class="cls-2" cx="1428.81" cy="157.97" r="74.57"/><path class="cls-1" d="M1709.74,95.47h0c-.12-.22-.26-.45-.39-.68a2.25,2.25,0,0,0-.12-.21C1671.71,27.89,1568.26-14,1526.08,4.3c20.7-1.14,54.58,86,54.58,86s44.68,13.69,73.27,36.92l.54-.31a31.09,31.09,0,0,1,5.41,20.11c-.76,8.64-2.07,30.79-3.73,58.84-2.77,46.75-5.64,97-8.76,130.28-1.69,18-2.39,56.78-57.3,75.3-19.36,6.53-75.61,21.44-87.79,25.91-.55,21.36-3.24,31.36-3.24,31.36s77.92-6,137.5-27.48c51.53-18.57,51.94-56.53,55.07-82.61,7.93-66.05,19.45-257.39,19.45-257.39A9.92,9.92,0,0,0,1709.74,95.47Z"/><path class="cls-1" d="M1146.4,95.47h0c.13-.22.27-.45.39-.68a2.25,2.25,0,0,0,.12-.21c37.52-66.68,141-108.56,183.15-90.27-20.69-1.14-54.58,86-54.58,86s-44.68,13.69-73.27,36.92l-.53-.31a31.15,31.15,0,0,0-5.42,20.11c.77,8.64,2.08,30.79,3.74,58.84,2.77,46.75,5.64,97,8.76,130.28,1.68,18,2.38,56.78,57.3,75.3,19.36,6.53,75.6,21.44,87.79,25.91.55,21.36,3.24,31.36,3.24,31.36s-77.93-6-137.51-27.48c-51.52-18.57-51.94-56.53-55.07-82.61-7.92-66.05-19.45-257.39-19.45-257.39A9.93,9.93,0,0,1,1146.4,95.47Z"/></g></g></svg>