<?xml version="1.0" encoding="utf-8"?>
<!-- Generator: Adobe Illustrator 25.4.1, SVG Export Plug-In . SVG Version: 6.00 Build 0)  -->
<svg version="1.1" id="Layer_1" xmlns="http://www.w3.org/2000/svg" xmlns:xlink="http://www.w3.org/1999/xlink" x="0px" y="0px"
	 viewBox="0 0 189.1 36.8" style="enable-background:new 0 0 189.1 36.8;" xml:space="preserve">
<style type="text/css">
	.st0{fill:#FFFFFF;}
</style>
<path id="path4464" class="st0" d="M82.5,32.7c-0.1,0.3-0.5,0.6-1.2,1c0.4,0.6,0.7,1.2,1,1.8c0,0.4-0.3,0.7-0.6,0.8
	c-0.4,0.2-0.8,0.3-1.2,0.3c-1.1,0-2.6-0.7-4.7-2S72.4,32,72.2,31c0,0-0.4-0.8-1.3-2.4l-0.6-1.2c-0.3-0.6-0.6-1-0.9-1
	c-0.1,0.9-0.3,2.4-0.6,4.4c-0.1,0.4-0.4,0.6-0.8,0.6c-0.4-0.1-0.8-0.3-1.2-0.5c-0.4-0.3-0.8-0.5-1.3-0.6C65.1,31.1,65,32,65,32.9
	c0,0.1,0,0.3,0.1,0.4c0.1,0.1,0.1,0.3,0.1,0.4c0.6,0,1.1,0,1.7-0.1c0.5-0.1,0.9-0.1,1.4-0.1c0.6,0,1.2,0,1.8,0.2l1.8,1.2v1.3h-7.5
	c-0.2,0-0.3,0.1-0.4,0.2c-0.1,0.1-0.2,0.2-0.4,0.2c-0.3,0-0.6,0-0.9-0.1c-0.3-0.1-0.7-0.2-1-0.2h-9c-0.4,0-0.8,0-1.2,0.1h-1.2
	c-0.1-0.1-0.2-0.1-0.3-0.2c-0.2-0.1-0.4-0.2-0.6-0.2c-0.3,0-0.5,0.1-0.7,0.3s-0.4,0.3-0.7,0.3c-0.4,0-0.7-0.2-1-0.4v-0.9
	c0.6-0.4,1.2-0.8,1.8-1.1c0.6-0.4,1.3-0.6,2-0.7c0.4,0.1,0.7,0.2,1.1,0.3c0.4,0.2,0.9,0.3,1.3,0.4c0.3,0,1.2,0.1,2.8,0.1
	c0.3-0.2,0.5-0.5,0.6-0.9c0.9-2.5,1.4-5.1,1.4-7.8c-0.1-2.5-0.4-5-1.1-7.4c-0.4-2-1.1-3.9-2.1-5.7c-0.3-0.4-0.4-0.9-0.4-1.4
	c0.1-1.4,0.1-3.4,0.1-6.2c0-0.1-0.3-0.3-0.8-0.8c-2.7-0.2-4-0.2-3.7-0.2c-0.6,0.1-1.1,0.3-1.6,0.6c-0.2-0.4-0.4-0.8-0.6-1.2
	c0-1,1-1.7,3-2.2c1.1-0.3,2.3-0.4,3.4-0.4c0.2-0.1,0.4-0.1,0.6-0.2l2.7-0.3C58.9,0.1,60.4,0,62,0c0.5,0.5,0.8,1.8,0.8,3.7
	c-0.1,1.5,0.3,2.9,1,4.2c2.1,2.1,4.6,4.5,7.3,7.4c2.9,3.8,5.5,7.7,7.8,11.8c0.1,0.1,0.3,0.2,0.4,0.4C80.6,29.1,81.6,30.8,82.5,32.7z
	 M77.7,27.8c-0.8-1.2-1.5-2.4-2.2-3.6c-0.6-1.2-1.3-2.3-2.1-3.4c-0.8-1.2-2.3-3-4.3-5.4c-2.2-2.6-3.5-3.9-3.9-3.9
	c-0.3,0.1-0.6,0.2-0.8,0.3c-0.2,0.1-0.5,0.2-0.8,0.3c0.1,0-0.2,0-0.8-0.1s-1.6-0.1-2.8-0.1c0.7,2.4,2.1,4.6,4,6.3
	c2.1,1.8,4.4,3.4,6.8,4.8C73.2,24.5,75.5,26.1,77.7,27.8z M79.6,34.5v-0.7c-0.4-0.6-1-1.3-1.6-2.2c-0.8-1.5-1.9-2.9-3.3-3.9
	c-0.8-0.6-2.1-1.4-3.8-2.5c0.6,1.1,1.5,2.6,2.6,4.7c0.4,1,1,1.9,1.8,2.7c1.7,1.3,2.8,2,3.3,2L79.6,34.5L79.6,34.5z M67.9,26.6
	c0-0.8-0.2-1.6-0.4-2.3c-0.1-0.6-0.4-1.3-0.8-1.8c-2.3-1.6-4.3-3.5-6-5.7c-1.8-2.3-2.7-4.3-2.6-6c0.1-0.5,0.5-0.8,1.3-0.9
	c0.3,0,0.5,0,0.8,0.1c0.3,0.1,0.6,0.2,0.9,0.2c0.9,0.1,1.9,0.1,2.8-0.2c0-0.3-0.1-0.6-0.2-0.6c-0.5-0.3-0.9-0.7-1.1-1.2
	c-0.3-0.6-0.5-1.2-0.7-1.9c-0.2-0.6-0.3-1.3-0.3-2V2.5c-0.1-0.4-0.3-0.7-0.6-1c-4.2,0-6.9,0.2-8,0.6c0.7,0.2,1.4,0.4,2.2,0.7
	s1.2,0.7,1.2,1.1c0.1,1.3,0.1,2.6,0,3.9c-0.1,1.3,0,2.6,0.4,3.8c0.2,0.7,0.5,1.4,0.9,2c0.5,0.7,1.1,1.4,1.6,2.1c0.4,0.6,0.7,1.3,1,2
	c0.2,0.6,0.5,1.3,0.8,1.9c1.3,2.4,2.1,3.9,2.4,4.4c0.7,1.2,1.2,2.6,1.4,4c0.7,0.3,1.6,0.7,2.8,1.2C67.8,28,67.9,27.1,67.9,26.6z
	 M62.4,28.1v-2.2c-0.2-0.8-0.6-1.6-1-2.3c-0.7-1.3-1.2-2.2-1.6-2.8c0.1,1.1,0.2,3.3,0.2,6.6c0.4,0.1,0.7,0.3,1,0.5
	c0.3,0.2,0.7,0.3,1,0.3C62.2,28.4,62.4,28.3,62.4,28.1z M63.5,31.6c0-0.3,0-0.6-0.2-0.9c-0.5-0.1-1-0.2-1.5-0.5
	c-0.3-0.2-0.7-0.4-1-0.6h-0.7c-0.6,1.1-1.1,2.2-1.4,3.4c0,0.2,0,0.3,0.1,0.5l0.1,0.2c0.6,0,1.2,0.1,1.8,0.2c0.8,0.1,1.1,0.2,1.2,0.2
	C63,34.2,63.5,33.3,63.5,31.6z M58.2,3.3l-0.3,0.3c-0.2,0.2-0.3,0.3-0.5,0.3s-0.3-0.1-0.5-0.2s-0.3-0.2-0.4-0.2V2.8
	c0.3-0.2,0.6-0.4,0.8-0.6c0.3,0,0.5,0.1,0.6,0.4C58,2.9,58.1,3,58.2,3.3z"/>
<path id="path4468" class="st0" d="M22.5,0.4c-0.1,6.4-0.2,15.5-0.3,27.2c0,1.3,0,2.6,0.2,3.9c0.1,1.6,0.2,2.8,0.2,3.2
	c0,0.5-0.1,0.9-0.2,1.4c-0.8,0.6-1.8,0.8-2.8,0.7c-0.5,0-1.2-0.1-2.4-0.2c-0.8-0.1-1.5-0.1-2.3-0.1c-4.2,0.3-9.2,0.3-14.8,0.2
	C0,36.5,0,36.2,0,36c0-1.1,0.8-2,1.9-2.3c1.4-0.4,3-0.7,4.4-1.1c3.4-1.4,5.5-2.4,6.1-2.7c1.5-0.6,2.9-1.5,4.1-2.6
	c0.2-2.2,0.3-4.3,0.3-6.5c0-2.6-0.1-6.2-0.3-10.8c-0.2-4.6-0.3-7.3-0.3-8.2c0-0.4,0-0.9,0.1-1.3c1.1-0.2,2.1-0.2,3.2-0.2
	C20.4,0.3,21.5,0.4,22.5,0.4z M20.3,18.9V2.8c-0.2-0.1-0.3-0.2-0.4-0.3c-0.1-0.1-0.2-0.2-0.3-0.2S19,2.4,18.3,2.5
	c0.5,7.6,0.7,13.4,0.7,17.4c0,5.7-0.4,9-1.2,9.8c-2.1,1.1-4.2,2-6.4,2.8c-4,1.5-6.3,2.5-6.7,2.9c1,0,2.4,0,4.2-0.1
	c3-0.2,4.7-0.3,5.2-0.3H18c1.3,0,2.1-0.1,2.2-0.3c0.2-2.5,0.3-5.1,0.2-7.6C20.4,24.4,20.4,21.7,20.3,18.9z"/>
<path id="path4600" class="st0" d="M38.3,36.4c-0.2,0-0.3,0-0.5,0.1c-0.2,0.1-0.4,0.1-0.6,0.1c-0.3,0-0.5,0-0.6-0.1
	C36.2,36.2,36,36,36,35.8v-3.1c0.1-1,0-2-0.4-3c-0.6-1.2-1.5-2.3-2.6-3.2c-1.1-0.9-2.2-1.7-3.4-2.5v-0.6L32,4.8
	c0.2-0.5,0.2-1,0.2-1.5c0.4-0.5,0.8-0.8,1.1-0.8c1.6,0,2.9,1,3.8,2.9c0.7,1.6,1.1,3.4,1,5.2l0.2,7.2c0.1,2.5,0.1,7.4,0.1,14.8
	L38.3,36.4z M36.4,27.8V11.5c0-1-0.1-1.9-0.3-2.9C36,7.7,35.8,6.8,35.5,6c-0.7-1.4-1.3-1.9-2-1.8l-2.3,18.5c0.9,0.6,1.8,1.2,2.5,2
	C34.4,25.5,35.3,26.5,36.4,27.8z"/>
<path id="path4602" class="st0" d="M87.9,2.5c-0.3,0-0.7,0.3-1.1,0.8c0,0.5-0.1,1-0.3,1.5l-2.4,18.6V24c1.1,0.8,2.2,1.7,3.4,2.5
	c1.1,0.8,2,1.9,2.6,3.2c0.4,1,0.5,2,0.4,3c-0.1,1-0.1,2.1,0,3.1c0.1,0.3,0.3,0.6,0.6,0.7c0.1,0.1,0.3,0.1,0.6,0.1
	c0.2,0,0.4,0,0.6-0.1c0.2-0.1,0.3-0.1,0.5-0.1v-3.9c0-7.4,0-12.4-0.1-14.8l-0.2-7.2c0-1.8-0.3-3.5-1-5.2C90.8,3.4,89.6,2.5,87.9,2.5
	z M101.9,2.5c-0.3,0-0.7,0.3-1.1,0.8c0,0.5-0.1,1-0.3,1.5l-2.4,18.6V24c1.1,0.8,2.2,1.7,3.4,2.5c1.1,0.8,2,1.9,2.6,3.2
	c0.4,1,0.5,2,0.4,3c-0.1,1-0.1,2.1,0,3.1c0.1,0.3,0.3,0.6,0.6,0.7c0.1,0.1,0.3,0.1,0.6,0.1c0.2,0,0.4,0,0.6-0.1
	c0.2-0.1,0.3-0.1,0.5-0.1v-3.9c0-7.4,0-12.4-0.1-14.8l-0.2-7.2c0-1.8-0.3-3.5-1-5.2C104.8,3.4,103.6,2.5,101.9,2.5z M88.4,4.2
	c0.6,0,1.1,0.6,1.7,1.8c0.3,0.8,0.5,1.7,0.6,2.6c0.2,1,0.3,1.9,0.3,2.9v16.3c-1.1-1.3-2-2.3-2.6-3c-0.7-0.8-1.6-1.4-2.5-2l2.3-18.5
	C88.3,4.2,88.3,4.2,88.4,4.2z M102.4,4.2c0.6,0,1.1,0.6,1.7,1.8c0.3,0.8,0.5,1.7,0.6,2.6c0.2,1,0.3,1.9,0.3,2.9v16.3
	c-1.1-1.3-2-2.3-2.6-3c-0.7-0.8-1.6-1.4-2.5-2l2.3-18.5C102.3,4.2,102.3,4.2,102.4,4.2z"/>
<path id="path4482" class="st0" d="M135.1,36c-0.3,0.5-1,0.6-1.5,0.3c-0.1-0.1-0.3-0.2-0.3-0.3l-6.9-10.4c-0.2-0.3-0.2-0.8,0-1.1
	c0.5-0.2,1.1-0.2,1.6,0c1.6,2.4,3.1,4.9,4.7,7.3C134.4,34.4,135.2,35.8,135.1,36L135.1,36z M128.7,35.6c0,0.7-0.5,1-1.5,0.9l-7.2-11
	l0.2-1.2c0.5-0.1,1.1-0.1,1.6,0l3.9,6.3C126.8,32.2,127.8,33.9,128.7,35.6L128.7,35.6z"/>
<path id="path4502" class="st0" d="M135.3,13.2c-0.3,0.4-0.7,0.6-1.2,0.6l-16-0.2c-0.3-0.1-0.6-0.1-0.7-0.2
	c-0.1-0.1-0.2-0.2-0.3-0.4c0-2.4,1.1-4.7,2.9-6.2c1.8-1.7,4.1-2.6,6.5-2.7c2.2,0.1,4.3,1.1,5.9,2.6c1.8,1.3,2.9,3.4,3,5.6
	C135.4,12.6,135.4,12.9,135.3,13.2L135.3,13.2z M133,11.7c0-1.5-0.8-3-2-3.9c-1.2-1-2.8-1.6-4.4-1.6c-1.7,0-3.4,0.6-4.8,1.5
	c-1.7,1.2-2.5,2.5-2.5,4H133z"/>
<line class="st0" x1="150.3" y1="25.2" x2="150.3" y2="36"/>
<rect x="148.8" y="25.2" class="st0" width="3" height="10.8"/>
<g>
	<rect x="165.5" y="25.2" class="st0" width="3" height="10.8"/>
</g>
<line class="st0" x1="183.7" y1="25.2" x2="183.7" y2="36"/>
<rect x="182.2" y="25.2" class="st0" width="3" height="10.8"/>
<g>
	<path class="st0" d="M189.1,17.6h-44.2V8h44.2V17.6z M146.9,15.6h40.2V10h-40.2V15.6z"/>
</g>
<g>
	<path class="st0" d="M161,9.1c0-0.4,0-0.8,0.1-1.1c0.1-0.8,0.5-1.6,0.9-2.3c1.1-1.7,3-2.6,5-2.6c0,0,0,0,0,0c2.1,0,2.7,0.2,4.9,2.5
		l0.1,0.1c0.5,0.7,0.9,1.6,1,2.5l0,0.1c0,0.1,0,0.1,0,0.2c0,0.2,0.1,0.4,0.1,0.6h-2c0-0.1,0-0.1,0-0.2c0-0.2-0.1-0.3-0.1-0.5
		c-0.1-0.5-0.3-1-0.6-1.4C168.8,5,168.7,5,167.1,5c0,0,0,0,0,0c-1.3,0-2.6,0.7-3.4,1.8c-0.3,0.5-0.5,1-0.6,1.6l0,0.2
		c0,0.1-0.1,0.3,0,0.4L161,9.1z"/>
</g>
<g>
	<rect x="159.6" y="4.3" transform="matrix(0.6298 -0.7768 0.7768 0.6298 54.271 127.2689)" class="st0" width="2" height="4.8"/>
</g>
<path class="st0" d="M175.4,5.2l-3.7,3"/>
<rect x="171.2" y="5.7" transform="matrix(0.7768 -0.6298 0.6298 0.7768 34.5243 110.7981)" class="st0" width="4.8" height="2"/>
</svg>
