<?xml version="1.0" encoding="utf-8"?>
<!-- Generator: Adobe Illustrator 25.4.1, SVG Export Plug-In . SVG Version: 6.00 Build 0)  -->
<svg version="1.1" id="Layer_1" xmlns="http://www.w3.org/2000/svg" xmlns:xlink="http://www.w3.org/1999/xlink" x="0px" y="0px"
	 viewBox="0 0 2500 508" style="enable-background:new 0 0 2500 508;" xml:space="preserve">
<style type="text/css">
	.st0{fill:#FFFFFF;}
	.st1{fill-rule:evenodd;clip-rule:evenodd;fill:#FFFFFF;}
</style>
<path class="st0" d="M1661.9,2.2h435.5v80.4h-172.7v422.8h-86.4V82.6h-176.3V2.2z M945.8,2.2v80.4h-349v129.3h280.7v80.4H596.7V425
	h349v80.4H510.3V82.6h0V2.2H945.8z M1163.2,2.4h-113L1455,505.6h113.4l-202.5-251.4L1568.1,2.8L1455,3l-145.7,180.9L1163.2,2.4z
	 M1279.2,361.9l-56.6-70.4L1049.8,506h113.4L1279.2,361.9L1279.2,361.9z"/>
<path class="st1" d="M513.4,505.4L108,2H0v503.2h86.4V109.6l318.5,395.9L513.4,505.4L513.4,505.4z"/>
<path class="st0" d="M2116.8,502.3c-6.1,0.1-11.9-2.3-16.2-6.6c-4.5-4.4-6.7-9.7-6.7-16c-0.1-6.1,2.2-11.4,6.7-15.7
	c4.3-4.3,10.1-6.7,16.2-6.6c6.1,0,11.4,2.2,15.9,6.6c4.6,4.4,6.8,9.6,6.9,15.7c0,4-1.1,7.9-3.2,11.4c-2.1,3.4-4.9,6.2-8.4,8.1
	C2124.6,501.3,2120.7,502.4,2116.8,502.3z M2264.2,290.3h38.3v147.5c-0.1,13.5-3,25.1-8.7,34.9c-5.8,9.7-13.8,17.2-24.1,22.4
	c-10.2,5.2-22.2,7.8-35.9,7.8c-12.5,0-23.6-2.3-33.6-6.6c-9.9-4.4-17.8-11-23.6-19.6c-5.9-8.6-8.7-19.4-8.7-32.3h38.3
	c0.1,5.6,1.3,10.6,3.8,14.6c2.4,4,6,7.3,10.2,9.4c4.4,2.2,9.4,3.3,15.1,3.3c6.1,0,11.4-1.3,15.7-3.9c4.3-2.5,7.6-6.3,9.8-11.4
	c2.2-5,3.4-11.2,3.5-18.6V290.3L2264.2,290.3z M2460,348c-0.9-8.9-5-15.9-12.2-20.9c-7.2-5-16.5-7.5-27.9-7.5
	c-8,0-14.9,1.2-20.7,3.6c-5.7,2.4-10.2,5.6-13.2,9.7c-3,4.1-4.6,8.8-4.7,14c0,4.4,1.1,8.2,3.1,11.4c2,3.2,4.8,5.9,8.4,8.1
	c3.7,2.3,7.6,4.2,11.7,5.6c4.3,1.5,8.7,2.8,13,3.8l20,4.9c8,1.8,15.7,4.3,23.2,7.5c7.2,3,14,7,20.1,11.9c5.9,4.7,10.6,10.6,14,17.3
	c3.5,6.8,5.2,14.7,5.2,23.8c0,12.3-3.2,23.1-9.5,32.4c-6.4,9.3-15.6,16.5-27.6,21.8c-12,5.2-26.5,7.8-43.6,7.8
	c-16.5,0-30.9-2.5-43-7.6c-12.2-5-21.7-12.4-28.5-22.1c-6.8-9.7-10.5-21.5-11.1-35.4h37.9c0.5,7.3,2.9,13.3,6.8,18.2
	c4,4.8,9.3,8.4,15.7,10.8c6.5,2.4,13.8,3.6,21.8,3.6c8.4,0,15.7-1.3,22.1-3.7c6.3-2.5,11.3-5.9,14.9-10.4c3.6-4.4,5.4-9.7,5.5-15.7
	c-0.1-5.5-1.7-10-4.9-13.6c-3.2-3.6-7.7-6.6-13.3-9c-6.5-2.7-13.2-4.9-20-6.5l-24.2-6.1c-17.5-4.4-31.4-11.2-41.5-20.2
	c-10.2-9.1-15.2-21-15.2-36.1c0-12.3,3.4-23.2,10.2-32.5c6.8-9.3,16.1-16.5,27.9-21.6c11.8-5.2,25.2-7.7,40-7.7
	c15.1,0,28.3,2.5,39.7,7.7c11.4,5.1,20.4,12.3,26.9,21.4c6.5,9.1,9.9,19.5,10.1,31.4L2460,348L2460,348z"/>
</svg>
