<?xml version="1.0" encoding="utf-8"?>
<!-- Generator: Adobe Illustrator 25.4.1, SVG Export Plug-In . SVG Version: 6.00 Build 0)  -->
<svg version="1.1" id="layer" xmlns="http://www.w3.org/2000/svg" xmlns:xlink="http://www.w3.org/1999/xlink" x="0px" y="0px"
	 viewBox="0 0 600 182" style="enable-background:new 0 0 600 182;" xml:space="preserve">
<style type="text/css">
	.st0{fill:#404145;}
	.st1{fill:#1DBF73;}
</style>
<path class="st0" d="M550.1,88.3h-20.9c-13.5,0-20.9,10.1-20.9,27.6v62.7h-40.4V88.3H451c-13.5,0-20.9,10.1-20.9,27.6v62.7h-40.4
	v-124h40.4v18.9c6.7-14.8,15.5-18.9,29-18.9h49.2v18.9c6.7-14.8,15.5-18.9,29-18.9h13.5L550.1,88.3z M380.2,126.1h-83.6
	c2,14.2,10.8,21.6,24.9,21.6c10.8,0,18.2-4.7,20.9-12.1l35.7,10.1c-8.8,21.6-30.3,34.4-56.6,34.4c-43.8,0-64-34.4-64-64
	c0-29,17.5-63.4,61.3-63.4c46.5,0,62,35.1,62,61.3C380.9,120,380.9,123.4,380.2,126.1z M341.8,102.5c-0.7-10.8-8.8-20.2-22.2-20.2
	c-12.8,0-20.2,5.4-22.9,20.2H341.8z M187.4,178.6h35.1L267,55.2h-40.5l-21.6,72.1l-21.6-72.8h-40.4L187.4,178.6z M22.9,178.6h39.8
	V88.3h38.4v90.3h39.8v-124H62.7v-7.4c0-8.1,6.1-13.5,14.8-13.5h23.6V0H71.5C42.5,0,23,18.2,23,44.5v10.1H0v33.7h22.9V178.6z"/>
<path class="st1" d="M575.1,182c13.5,0,24.9-11.5,24.9-24.9c0-13.5-11.5-24.9-24.9-24.9s-24.9,11.5-24.9,24.9
	C550.1,170.6,561.6,182,575.1,182z"/>
</svg>
