<?xml version="1.0" encoding="utf-8"?>
<!-- Generator: Adobe Illustrator 25.4.1, SVG Export Plug-In . SVG Version: 6.00 Build 0)  -->
<svg version="1.1" id="Layer_1" xmlns="http://www.w3.org/2000/svg" xmlns:xlink="http://www.w3.org/1999/xlink" x="0px" y="0px"
	 viewBox="0 0 117.5 28.7" style="enable-background:new 0 0 117.5 28.7;" xml:space="preserve">
<style type="text/css">
	.st0{fill:#29B2FE;}
	.st1{fill:#161F2B;}
</style>
<path class="st0" d="M22.4,0L25,3.6L38.1,0 M8.7,28.3l7.1-6.9l-4.3-4.6 M21.3,0l-3.8,3.4l6.4,0.2 M6.6,0l1.4,2.8l7.5,0.5 M10.6,14.5
	l5.5-10.4L0,3.3 M11.2,15.1l5.2,5.6l5.8-5.7L24,4.5l-7-0.4"/>
<path class="st1" d="M33.5,13.3H32l-1.3,7.9c0,0.2-0.2,0.4-0.4,0.4h-2.9c-0.2,0-0.4-0.2-0.3-0.4l1.8-11.1c0.4-2.8,1.9-3.4,3.8-3.4
	c0.6,0,1.2,0.1,1.7,0.2c0.2,0,0.4,0.2,0.3,0.4L34.5,9c0,0.2-0.2,0.4-0.5,0.4h-0.8c-0.5,0-0.6,0.2-0.7,0.8l-0.1,0.5h1.4
	c0.2,0,0.3,0.2,0.3,0.4l-0.3,1.9C33.9,13.1,33.7,13.3,33.5,13.3L33.5,13.3z M40.6,13.4h-0.3c-0.8,0-1.6,0.1-2.2,0.4L37,21.2
	c0,0.2-0.2,0.4-0.4,0.4h-2.8c-0.2,0-0.4-0.2-0.3-0.4L35,11c0-0.2,0.2-0.4,0.4-0.4h2.7c0.3,0,0.4,0.1,0.3,0.4l-0.1,0.5
	c1-0.9,1.7-1,2.7-1c0.3,0,0.4,0.1,0.3,0.4L41,13.1C41,13.4,40.9,13.4,40.6,13.4L40.6,13.4z M50.2,17.1h-5.9l0,0
	c-0.2,1,0.2,1.6,1.5,1.6l3.6-0.2c0.3,0,0.4,0,0.4,0.3l-0.3,1.7c0,0.3-0.1,0.4-0.5,0.5c-1.3,0.4-2.6,0.6-4.2,0.6
	c-2.6,0-4.7-1.3-4.1-5l0.2-1.2c0.5-3.3,2.7-5.1,5.8-5.1c3.3,0,4.5,2.1,4,5.1l-0.2,1.1C50.6,16.9,50.4,17.1,50.2,17.1L50.2,17.1z
	 M47.4,15.1c0.2-1.1-0.2-1.8-1.1-1.8c-0.9,0-1.5,0.7-1.7,1.8l0,0.1L47.4,15.1L47.4,15.1L47.4,15.1z M60.6,17.1h-5.9l0,0
	c-0.2,1,0.2,1.6,1.5,1.6l3.6-0.2c0.3,0,0.4,0,0.4,0.3L60,20.7c0,0.3-0.1,0.4-0.5,0.5c-1.3,0.4-2.6,0.6-4.2,0.6c-2.6,0-4.7-1.3-4.1-5
	l0.2-1.2c0.5-3.3,2.7-5.1,5.8-5.1c3.3,0,4.5,2.1,4,5.1l-0.2,1.1C61,17,60.9,17.1,60.6,17.1L60.6,17.1z M57.9,15.1
	c0.2-1.1-0.2-1.8-1.1-1.8c-0.9,0-1.5,0.7-1.7,1.8l0,0.1L57.9,15.1L57.9,15.1z M64.5,21.6h-2.8c-0.2,0-0.4-0.2-0.4-0.4c0,0,0,0,0,0
	l2.2-13.8c0-0.2,0.3-0.4,0.5-0.4h2.9c0.2,0,0.4,0.2,0.3,0.4l-2.2,13.8C64.9,21.4,64.7,21.6,64.5,21.6L64.5,21.6z M74.5,21.6h-2.6
	c-0.2,0-0.4-0.2-0.3-0.4l0.1-0.4c-0.8,0.5-1.8,0.9-2.9,0.9c-1.5,0-3.1-0.8-2.7-3.4l0-0.2c0.4-2.3,2.2-3.1,5.4-3.1h0.8l0.1-0.5
	c0.1-0.9-0.1-1.1-1.1-1.1L68,13.6c-0.3,0-0.4-0.2-0.4-0.4l0.3-1.8c0-0.3,0.2-0.4,0.4-0.5c0.7-0.2,2.3-0.5,3.5-0.5
	c2.7,0,4.6,1,4.1,4.1l-1,6.7C74.9,21.4,74.7,21.6,74.5,21.6L74.5,21.6z M72.1,17.1h-0.9c-0.9,0-1.4,0.3-1.5,1.1l0,0.2
	c-0.1,0.6,0.3,0.8,0.8,0.8c0.5,0,0.9-0.1,1.3-0.3L72.1,17.1L72.1,17.1z M85.4,21.6h-2.8c-0.2,0-0.4-0.2-0.4-0.4l1-6.4
	c0.2-1-0.1-1.3-1-1.3c-0.4,0-1,0.2-1.5,0.4l-1.2,7.3c0,0.2-0.2,0.4-0.4,0.4h-2.8c-0.2,0-0.4-0.2-0.3-0.4L77.6,11
	c0-0.2,0.2-0.4,0.4-0.4h2.6c0.2,0,0.3,0.2,0.3,0.4L81,11.4c1.1-0.8,2.2-1,3.3-1c3,0,3,2.1,2.7,4.3l-1,6.4
	C85.9,21.4,85.7,21.6,85.4,21.6L85.4,21.6z M93.8,21.5c-0.9,0.2-1.8,0.3-2.6,0.3c-2.9,0-4.2-1.9-3.7-5l0.2-1.4c0.5-3.1,2.4-5,5.3-5
	c1.1,0,2,0.2,2.5,0.3c0.2,0.1,0.4,0.2,0.3,0.4l-0.3,2.1c0,0.2-0.2,0.4-0.5,0.4l-2.2-0.1c-0.8,0-1.4,0.5-1.6,1.9l-0.2,1.4
	c-0.2,1.4,0.2,1.9,1,1.9c0.7,0,1.5,0,2.2-0.1c0.3,0,0.4,0.1,0.3,0.4l-0.3,2.1C94.2,21.3,94.1,21.4,93.8,21.5L93.8,21.5z M104.9,17.1
	H99l0,0c-0.2,1,0.2,1.6,1.5,1.6l3.6-0.2c0.3,0,0.4,0,0.4,0.3l-0.3,1.7c0,0.3-0.1,0.4-0.5,0.5c-1.3,0.4-2.6,0.6-4.2,0.6
	c-2.6,0-4.7-1.3-4.1-5l0.2-1.2c0.5-3.3,2.7-5.1,5.8-5.1c3.3,0,4.5,2.1,4,5.1l-0.2,1.1C105.3,17,105.2,17.1,104.9,17.1L104.9,17.1z
	 M102.2,15.1c0.2-1.1-0.2-1.8-1.1-1.8c-0.9,0-1.5,0.7-1.7,1.8l0,0.1L102.2,15.1L102.2,15.1z M110.9,10.6l-1.7,10.6
	c0,0.2-0.2,0.4-0.4,0.4h-2.8c-0.2,0-0.4-0.2-0.4-0.4l1.1-7L110.9,10.6L110.9,10.6z"/>
<path class="st0" d="M111.9,10.6l-0.6,3.6l6.2-3.6"/>
</svg>
