<?xml version="1.0" encoding="utf-8"?>
<!-- Generator: Adobe Illustrator 25.4.1, SVG Export Plug-In . SVG Version: 6.00 Build 0)  -->
<svg version="1.1" id="Layer_1" xmlns="http://www.w3.org/2000/svg" xmlns:xlink="http://www.w3.org/1999/xlink" x="0px" y="0px"
	 viewBox="0 0 640 160" style="enable-background:new 0 0 640 160;" xml:space="preserve">
<style type="text/css">
	.st0{fill:#424242;}
	.st1{fill:#FCB62E;}
	.st2{fill:#F2B326;}
</style>
<path class="st0" d="M640,147.5c-55.1,0.5-110.3,0.5-166.5,0.5c1.5-1.1,2.2-1.7,3-2.2c6.3-3.9,10.7-9.5,13.9-16
	c1.6-3.1,3.3-3.9,6.6-3.9c37.5,0.1,75,0.1,112.4,0.1c1.8,0,3.6,0,6.6,0c-2.5-8.7-4.3-16.9-7.2-24.7c-4.4-11.8-13.7-18.4-25.7-21.3
	c-13-3.2-24.6,0.6-35.6,7.2c-2.1,1.2-3.7,3.3-5.4,5.1c-2,2.2-3.4,2.5-5.1-0.5c-2.8-4.9-6-9.5-9.2-14.5c10.3-9.8,22.1-16.3,36.5-18.4
	c13.6-2,26.4-0.6,39,5c17.6,7.9,26.7,22.4,31.4,40.1c2,7.5,2.1,15.4,3.2,23.1c0.2,1.2,0.8,2.4,1.6,3.2
	C640,135.7,640,141.4,640,147.5z"/>
<path class="st0" d="M0,58.5c6,2.9,12.2,6,18,9.7c1.5,0.9,2.8,3.3,2.8,5c0.3,8,0.1,16,0.1,24c0,18.7,11.1,28.5,28.7,28.8
	c21.3,0.4,42.6,0,64,0.1c12.9,0,19.1-8.1,19.3-19.5c0.2-14.3,0.1-28.7,0-43c0-3.5,1-4.7,4.6-4.6c5.4,0.1,10.7-0.5,16.5-0.8
	c0,12.2,0,24.1,0,36.1c0,9.5,0.3,19-0.1,28.5c-0.5,13.3-10,25.4-25.1,25.3c-27.2-0.1-54.3,0.4-81.5-0.2c-13.1-0.3-25.8-4.1-35-14.2
	c-4.5-5-7-11.8-10.4-17.7c-0.5-0.8-0.9-1.6-1.7-2.1C0,95.6,0,77.3,0,58.5z"/>
<path class="st0" d="M404,147.8c-1.8,0.1-3.7,0.2-5.5,0.2c-69.3,0-138.6,0-207.9,0c-13.8,0-25.7-10.3-27.5-24.1c-0.6-4-1-8.1-1-12.2
	c-0.1-26.3,0.1-52.6-0.2-79c0-3.4,1.3-5.2,3.6-6.6c5.8-3.6,11.7-7,18.5-11c0,2.7,0,4.5,0,6.2c0,27.8,0,55.6,0,83.5
	c0,3.4,0.2,6.9,1.1,10.2c1.4,5.5,5.3,9.5,10.8,9.8c12.6,0.6,25.3,0.4,37.9,0.1c5.5-0.1,8.4-4.5,10-9.1c1.3-3.9,1.9-8.2,2.1-12.4
	c0.3-10.3,0.2-20.7,0-31c0-3.1,0.3-4.9,4-6c6.1-1.8,11.9-4.8,18.4-7.5c-1.7,22.6,2.2,44.8-2.7,67.1c6.1,0,12.7,0.7,19.2-0.2
	c10.3-1.3,15-7.7,15.1-18.5c0.1-11.8,0.1-23.7,0-35.5c0-2.8,0.5-4.2,3.6-5.2c6.4-2.1,12.4-5,19.5-7.9c-0.8,22.7,2,45.1-3.5,67.8
	c7.1-0.5,14.3-0.5,21.4-1.5c8.7-1.3,13-7,13-15.9c0-12.3,0.1-24.7-0.1-37c0-2.9,0.8-4.3,3.6-5.3c6.4-2.4,12.7-5.1,19.8-8
	c-2,22.7,3.2,45.3-5.1,68.3c14.4,0,28.6,0,43.2,0.4C411.8,134.5,407.9,141.2,404,147.8z"/>
<path class="st1" d="M461,146c-5.3,1.1-10.2,2.1-15.6,3.2c0-7.9,0-15.4,0-22.9c17.4-1.3,25.2-13,24.6-25.2
	c-0.5-11.1-10.6-19.6-24.7-20.3c0-7.4,0-14.8,0-22.2c15.2-2.9,39.9,8.6,46.3,33.6C496.8,112.7,485.5,138.7,461,146z"/>
<path class="st1" d="M400.5,83.4c-0.1-8.6-0.4-17.2-0.4-25.7c-0.1-12.9,0-25.8,0.2-39.3c0.5-0.7,0.6-0.9,0.7-1.2
	c12.8,0,25.6,0,38.7,0c0,7.8,0,15.5,0,23.7c-5,0-10,0-15.7,0c0,5,0.2,9.7-0.1,14.2c-0.1,1.7-1.2,4.1-2.6,5c-9.4,6-15.9,14.2-20,24.5
	C400.7,83.9,400.6,83.6,400.5,83.4z"/>
<path class="st1" d="M412.2,74.3c7.5-8.3,15.9-14.5,27.5-15.7c0,8,0,15.5,0,23c-10.1,4.2-14.4,12.4-15,23.1c-7.6,0-15,0-22.8,0
	C402.2,93.5,405.5,83.5,412.2,74.3z"/>
<path class="st1" d="M470,41c-8.5,0-16.4,0-24.7,0c0-8,0-15.7,0-23.7c13.6,0,27.3,0,41.4,0c0,7.6,0,15.4,0,23.7
	C481.3,41,475.9,41,470,41z"/>
<path class="st0" d="M40.3,41.8c0-1.5-0.2-3.3,0.6-4c6.1-6,12.4-11.8,19.1-18c6.1,4.5,12.7,8.6,16.4,15.9c1.8,3.6,1,6.6-1.6,8.9
	c-4.6,4.1-9.6,7.7-14.6,11.3c-1.6,1.2-2.9,1.5-5-0.9C50.9,50.2,45.6,46.3,40.3,41.8z"/>
<path class="st0" d="M111.2,24.7c10.6,10.6,10.4,13.1-1.2,21.7c-1.4,1.1-2.8,2.2-4.2,3.2c-6.9,5.3-8.3,4.9-13.7-2.2
	c-2.9-3.7-6.8-6.6-10.6-10.3c0.5-2.3,15-17.3,20.8-20.4C105.1,19.4,108,21.9,111.2,24.7z"/>
<path class="st0" d="M569.8,22.7c2.4-2.6,4.5-4.9,7.3-8.1c5.4,5.8,10.4,10.9,15.2,16.1c3.5,3.7,2.2,7.5-1,10.3
	c-5.2,4.6-10.8,8.7-16.3,12.9c-6.2-6-12.2-11.7-19-18.3C560,32,564.7,27.5,569.8,22.7z"/>
<path class="st1" d="M404.4,147.9c3.4-6.8,7.4-13.4,11.4-20.4c3.2-0.7,6.2-1.3,9.3-1.4c4.8-0.2,9.6-0.1,14.6-0.1c0,7.4,0,14.4,0,22
	C428.1,148,416.5,148,404.4,147.9z"/>
<path class="st2" d="M400.3,83.6c0.3,0.1,0.5,0.3,0.7,1.1C400.7,84.7,400.4,84.2,400.3,83.6z"/>
<path class="st2" d="M400.7,17.1c0.2,0.3,0,0.5-0.4,0.8C400.3,17.7,400.4,17.4,400.7,17.1z"/>
</svg>
