<?xml version="1.0" encoding="utf-8"?>
<!-- Generator: Adobe Illustrator 25.4.1, SVG Export Plug-In . SVG Version: 6.00 Build 0)  -->
<svg version="1.1" id="Layer_1" xmlns="http://www.w3.org/2000/svg" xmlns:xlink="http://www.w3.org/1999/xlink" x="0px" y="0px"
	 viewBox="0 0 676.1 196.3" style="enable-background:new 0 0 676.1 196.3;" xml:space="preserve">
<style type="text/css">
	.st0{fill:#2285C7;}
</style>
<g>
	<path class="st0" d="M128.7,145.2c14.6,0,28.7,0,44.1,0c-14.9-35.4-9.4-65.1,25.1-84.4c21.7-12.1,43.9-9.1,62.9,6.2
		c25.8,20.8,27.9,47.7,15.3,77.4c2.4,0.5,4.1,1.2,5.8,1.2c12.3,0.1,31.9-0.1,44.2,0.1c0,0,3.6-23.5,4.7-31.6
		c1.6-11.4,9.2-18.8,17.9-17.2c9.9,1.8,14.6,10.3,12.6,22c-1.2,6.7-4.3,26.8-4.3,26.8c-3.8,0,28.9,0,32.8,0c0,0,3.7-28.7,5.1-35.9
		c1.6-8.2,9.2-13.9,16.4-12.8c8.3,1.2,13.5,7.1,13.1,16c-0.3,7.1-3,29.5-3.3,32.7c0.1,0,17.3,0,17.3,0s3.9-35,5.8-46
		c1.7-10.2,9.3-16.1,18.3-14.5c9,1.6,13.6,9.5,11.9,19.9c-1.8,10.8-6.1,40.6-6.1,40.6c5.3,0,17,0,17,0c1.9-15.1,5.8-37.1,8.1-52.1
		c1.2-7.9,4.6-15.1,13.2-15.5c4.9-0.2,11.2,2.6,14.5,6.2c2.7,2.9,3,9.1,2.5,13.6c-1.8,15.4-4.4,31.5-6.8,47.8c11.6,0,22.3,0,33,0
		c0.9-9,0.7-19,2.7-27.6c7-30,34-49.4,65.8-47.9c28.3,1.3,52.9,24.8,57.3,54.1c5.4,36.1-21.3,71-62.6,71.9
		c-14.1,0.3-27.1-5.2-38.8-13.7c-4.2-3.1-10.2-5.3-15.4-5.3c-146.2-0.3-292.5-0.3-438.7,0c-5,0-10.7,2-14.7,5
		C67,210.7,12.9,193.3,2,148.7c-10.2-41.8,21.3-77.4,57.5-78.4C70,70,76.2,74.9,76.9,83.4c0.7,9.2-4.6,15.1-15.4,16.3
		c-14.9,1.8-25.7,8.8-30.5,23.4c-4.6,14,1.4,30,14,37.9c12.9,8,31.1,6.1,42.6-4.3c9.4-8.4,11.6-19.4,11.6-31.2
		c0.1-36.4-0.1-72.7,0.1-109.1c0.1-12.6,10.5-19.8,20.9-14.6c5.8,2.9,8.9,7.8,8.9,14.5c-0.3,41.8-0.7,83.6-1,125.4
		C128,142.6,128.3,143.4,128.7,145.2z M613.5,101.3c-18-0.1-32.1,13.3-32.5,30.9c-0.4,18.2,14,33.1,32.2,33.2
		c18,0.1,32.4-14.2,32.4-32C645.6,115.1,631.9,101.4,613.5,101.3z M224.6,144c16.7-0.1,30.9-14.4,30.6-30.9
		c-0.3-17.1-13.7-29.9-31.3-29.8c-16.9,0.1-30.1,13.2-30.2,30C193.6,130,207.8,144.1,224.6,144z"/>
	<path class="st0" d="M201.2,0c9.7,0,19.6,9.9,19.6,19.5c0,9.7-9.8,19.4-19.5,19.5c-9.8,0-19.4-9.5-19.5-19.4
		C181.7,9.8,191.4,0,201.2,0z"/>
	<path class="st0" d="M268.6,19.5c0,10.6-8.7,19.6-19,19.5c-10.1-0.1-19.1-9.5-18.9-19.9c0.2-10.4,9.5-19.4,19.7-19.1
		C260.3,0.3,268.6,9.2,268.6,19.5z"/>
	<path class="st0" d="M388.4,60.9c-0.1,10.9-8.8,19.5-19.2,19.1c-10-0.4-18.8-9.4-18.8-19.1c0-10.9,8.1-19,19.2-19
		C381,42,388.6,49.6,388.4,60.9z"/>
	<path class="st0" d="M302.4,60.8c0-10.9,7.5-18.6,18.2-18.8c11.2-0.2,19.7,7.8,19.9,18.4c0.1,10.1-9,19.5-19.2,19.7
		C310.8,80.3,302.4,71.7,302.4,60.8z"/>
</g>
</svg>
