<?xml version="1.0" encoding="utf-8"?>
<!-- Generator: Adobe Illustrator 25.4.1, SVG Export Plug-In . SVG Version: 6.00 Build 0)  -->
<svg version="1.1" id="Layer_1" xmlns="http://www.w3.org/2000/svg" xmlns:xlink="http://www.w3.org/1999/xlink" x="0px" y="0px"
	 viewBox="0 0 800 237.3" style="enable-background:new 0 0 800 237.3;" xml:space="preserve">
<style type="text/css">
	.st0{fill:#6FDA44;}
</style>
<g>
	<path class="st0" d="M218.9,150.7c-13,0-25.2-5.5-36.3-14.5l2.7-12.7l0.1-0.5c2.4-13.5,10-36.1,33.4-36.1
		c17.6,0,31.9,14.3,31.9,31.9C250.7,136.5,236.4,150.7,218.9,150.7L218.9,150.7z M218.9,54.8c-29.9,0-53.1,19.4-62.5,51.4
		c-14.4-21.6-25.3-47.6-31.7-69.4H92.5v83.8c0,16.5-13.5,30-30,30s-30-13.5-30-30V36.8H0.3v83.8c-0.1,34.3,27.8,62.5,62.1,62.5
		s62.3-28.2,62.3-62.5v-14.1c6.3,13.1,13.9,26.2,23.3,38l-19.7,92.8h33l14.3-67.3c12.5,8,26.9,13.1,43.5,13.1
		c35.3,0,64.1-28.9,64.1-64.2C283,83.6,254.2,54.8,218.9,54.8L218.9,54.8z"/>
	<path d="M381.3,58.4l20.8,83.8L425,58.4h27.3l-35.2,121.1h-27.3l-21.6-84.3l-21.6,84.3h-27.3L284.2,58.4h27.3l22.9,83.8l20.8-83.8
		L381.3,58.4L381.3,58.4z M517.6,54.8c-35.4,0-64.1,28.8-64.1,64.1c0,35.4,28.8,64.1,64.1,64.1c35.4,0,64.2-28.7,64.2-64.1
		S553,54.8,517.6,54.8z M517.6,156.7c-20.8,0-37.7-16.9-37.7-37.7s16.9-37.7,37.7-37.7c20.8,0,37.7,16.9,37.7,37.7
		C555.3,139.8,538.4,156.7,517.6,156.7z M659.7,85.6c-18.3,0-33.1,14.9-33.1,33.1v60.8h-27.5V58.4h27.5v18.6
		c0,0,11.7-18.7,35.8-18.7h8.4v27.2H659.7z M751.9,114.3c19.5-11,32.7-31.9,32.7-55.9h-27.5c0,20.2-16.4,36.6-36.6,36.6h-3.7V0
		h-27.5v179.5h27.5v-57h3.3c2.7,0,6.2,1.8,7.8,3.9l39,53.1h32.9L751.9,114.3z"/>
</g>
</svg>
